<mxfile host="www.draw.io" modified="2020-02-15T22:56:36.813Z" agent="Mozilla/5.0 (Windows NT 10.0; Win64; x64) AppleWebKit/537.36 (KHTML, like Gecko) Chrome/79.0.3945.130 Safari/537.36" etag="lEDCu-7W63DTP6OeRNJ0" version="12.7.0" type="github" pages="2">
  <diagram id="vJPUer5MD2CjxXL3Lmdu" name="2.1: Display New Client Form">
    <mxGraphModel dx="700" dy="748" grid="1" gridSize="10" guides="1" tooltips="1" connect="1" arrows="1" fold="1" page="1" pageScale="1" pageWidth="850" pageHeight="1100" math="0" shadow="0">
      <root>
        <mxCell id="0"/>
        <mxCell id="1" parent="0"/>
        <mxCell id="J3k24d4XHYHLtLyoWLFU-1" value="2.1&lt;br&gt;Display New Client Form" style="whiteSpace=wrap;html=1;aspect=fixed;" parent="1" vertex="1">
          <mxGeometry x="350" y="50" width="80" height="80" as="geometry"/>
        </mxCell>
        <mxCell id="J3k24d4XHYHLtLyoWLFU-3" value="2.1.4&lt;br&gt;Display New Client Form on Screen" style="whiteSpace=wrap;html=1;aspect=fixed;" parent="1" vertex="1">
          <mxGeometry x="525" y="260" width="80" height="80" as="geometry"/>
        </mxCell>
        <mxCell id="J3k24d4XHYHLtLyoWLFU-5" value="" style="endArrow=classic;html=1;exitX=0.75;exitY=1;exitDx=0;exitDy=0;strokeWidth=2;entryX=0.5;entryY=0;entryDx=0;entryDy=0;" parent="1" source="J3k24d4XHYHLtLyoWLFU-1" target="J3k24d4XHYHLtLyoWLFU-3" edge="1">
          <mxGeometry width="50" height="50" relative="1" as="geometry">
            <mxPoint x="490" y="220" as="sourcePoint"/>
            <mxPoint x="515" y="250" as="targetPoint"/>
          </mxGeometry>
        </mxCell>
        <mxCell id="J3k24d4XHYHLtLyoWLFU-18" value="" style="endArrow=classic;html=1;strokeWidth=2;entryX=0.5;entryY=0;entryDx=0;entryDy=0;exitX=0.5;exitY=1;exitDx=0;exitDy=0;" parent="1" source="J3k24d4XHYHLtLyoWLFU-1" target="J3k24d4XHYHLtLyoWLFU-21" edge="1">
          <mxGeometry width="50" height="50" relative="1" as="geometry">
            <mxPoint x="410" y="130" as="sourcePoint"/>
            <mxPoint x="450" y="250" as="targetPoint"/>
          </mxGeometry>
        </mxCell>
        <mxCell id="J3k24d4XHYHLtLyoWLFU-19" value="2.1.3.1&lt;br&gt;Retrieve List of Group Homes from Group Home Table" style="shape=process;whiteSpace=wrap;html=1;backgroundOutline=1;" parent="1" vertex="1">
          <mxGeometry x="410" y="410" width="100" height="90" as="geometry"/>
        </mxCell>
        <mxCell id="J3k24d4XHYHLtLyoWLFU-20" value="" style="endArrow=classic;html=1;strokeWidth=2;entryX=0.5;entryY=0;entryDx=0;entryDy=0;exitX=0.5;exitY=1;exitDx=0;exitDy=0;" parent="1" source="J3k24d4XHYHLtLyoWLFU-21" target="J3k24d4XHYHLtLyoWLFU-19" edge="1">
          <mxGeometry width="50" height="50" relative="1" as="geometry">
            <mxPoint x="450" y="340" as="sourcePoint"/>
            <mxPoint x="555" y="432.5" as="targetPoint"/>
          </mxGeometry>
        </mxCell>
        <mxCell id="J3k24d4XHYHLtLyoWLFU-21" value="2.1.3&lt;br&gt;Get Required Information from Database" style="shape=process;whiteSpace=wrap;html=1;backgroundOutline=1;" parent="1" vertex="1">
          <mxGeometry x="415" y="260" width="90" height="90" as="geometry"/>
        </mxCell>
        <mxCell id="J3k24d4XHYHLtLyoWLFU-24" value="2.1.2&lt;br&gt;Connect to Database" style="shape=process;whiteSpace=wrap;html=1;backgroundOutline=1;" parent="1" vertex="1">
          <mxGeometry x="295" y="260" width="90" height="80" as="geometry"/>
        </mxCell>
        <mxCell id="J3k24d4XHYHLtLyoWLFU-25" value="" style="endArrow=classic;html=1;strokeWidth=2;entryX=0.5;entryY=0;entryDx=0;entryDy=0;exitX=0.5;exitY=1;exitDx=0;exitDy=0;" parent="1" source="J3k24d4XHYHLtLyoWLFU-1" target="J3k24d4XHYHLtLyoWLFU-24" edge="1">
          <mxGeometry width="50" height="50" relative="1" as="geometry">
            <mxPoint x="307.5" y="130" as="sourcePoint"/>
            <mxPoint x="472.5" y="250" as="targetPoint"/>
          </mxGeometry>
        </mxCell>
        <mxCell id="L90MoupS-Xo4SK0wd8p--1" value="2.1.1&lt;br&gt;Confirm user" style="shape=process;whiteSpace=wrap;html=1;backgroundOutline=1;" vertex="1" parent="1">
          <mxGeometry x="175" y="260" width="90" height="80" as="geometry"/>
        </mxCell>
        <mxCell id="L90MoupS-Xo4SK0wd8p--2" value="" style="endArrow=classic;html=1;strokeWidth=2;entryX=0.5;entryY=0;entryDx=0;entryDy=0;exitX=0;exitY=1;exitDx=0;exitDy=0;" edge="1" parent="1" source="J3k24d4XHYHLtLyoWLFU-1" target="L90MoupS-Xo4SK0wd8p--1">
          <mxGeometry width="50" height="50" relative="1" as="geometry">
            <mxPoint x="350" y="130" as="sourcePoint"/>
            <mxPoint x="405" y="250" as="targetPoint"/>
          </mxGeometry>
        </mxCell>
      </root>
    </mxGraphModel>
  </diagram>
  <diagram id="nISazEQw0b3gAjmlYJ5J" name="2.2: Add Client Info to Client Table">
    <mxGraphModel dx="700" dy="748" grid="1" gridSize="10" guides="1" tooltips="1" connect="1" arrows="1" fold="1" page="1" pageScale="1" pageWidth="850" pageHeight="1100" math="0" shadow="0">
      <root>
        <mxCell id="TApKO4t_a85Z9XOLjcWy-0"/>
        <mxCell id="TApKO4t_a85Z9XOLjcWy-1" parent="TApKO4t_a85Z9XOLjcWy-0"/>
        <mxCell id="TApKO4t_a85Z9XOLjcWy-2" value="2.2&lt;br&gt;Add Client Info Into&amp;nbsp; Client Table" style="whiteSpace=wrap;html=1;aspect=fixed;" parent="TApKO4t_a85Z9XOLjcWy-1" vertex="1">
          <mxGeometry x="420" y="70" width="80" height="80" as="geometry"/>
        </mxCell>
        <mxCell id="TApKO4t_a85Z9XOLjcWy-3" value="" style="endArrow=classic;html=1;exitX=0.25;exitY=1;exitDx=0;exitDy=0;entryX=0.5;entryY=0;entryDx=0;entryDy=0;strokeWidth=2;" parent="TApKO4t_a85Z9XOLjcWy-1" source="TApKO4t_a85Z9XOLjcWy-2" target="TApKO4t_a85Z9XOLjcWy-4" edge="1">
          <mxGeometry width="50" height="50" relative="1" as="geometry">
            <mxPoint x="310" y="190" as="sourcePoint"/>
            <mxPoint x="160" y="270" as="targetPoint"/>
          </mxGeometry>
        </mxCell>
        <mxCell id="TApKO4t_a85Z9XOLjcWy-4" value="&lt;span style=&quot;white-space: normal&quot;&gt;2.2.1&lt;br&gt;&lt;/span&gt;Retrieve Submitted Form Data" style="shape=process;whiteSpace=wrap;html=1;backgroundOutline=1;" parent="TApKO4t_a85Z9XOLjcWy-1" vertex="1">
          <mxGeometry x="280" y="270" width="90" height="80" as="geometry"/>
        </mxCell>
        <mxCell id="TApKO4t_a85Z9XOLjcWy-5" value="&lt;span style=&quot;white-space: normal&quot;&gt;2.2.2&lt;br&gt;&lt;/span&gt;Verify Submitted Form Data" style="shape=process;whiteSpace=wrap;html=1;backgroundOutline=1;" parent="TApKO4t_a85Z9XOLjcWy-1" vertex="1">
          <mxGeometry x="415" y="270" width="90" height="80" as="geometry"/>
        </mxCell>
        <mxCell id="TApKO4t_a85Z9XOLjcWy-6" value="" style="endArrow=classic;html=1;exitX=0.5;exitY=1;exitDx=0;exitDy=0;entryX=0.5;entryY=0;entryDx=0;entryDy=0;strokeWidth=2;" parent="TApKO4t_a85Z9XOLjcWy-1" source="TApKO4t_a85Z9XOLjcWy-2" target="TApKO4t_a85Z9XOLjcWy-5" edge="1">
          <mxGeometry width="50" height="50" relative="1" as="geometry">
            <mxPoint x="467.5" y="170" as="sourcePoint"/>
            <mxPoint x="262.5" y="290" as="targetPoint"/>
          </mxGeometry>
        </mxCell>
        <mxCell id="TApKO4t_a85Z9XOLjcWy-7" value="" style="endArrow=classic;html=1;strokeWidth=2;entryX=0.5;entryY=0;entryDx=0;entryDy=0;exitX=0.75;exitY=1;exitDx=0;exitDy=0;" parent="TApKO4t_a85Z9XOLjcWy-1" source="TApKO4t_a85Z9XOLjcWy-2" target="TApKO4t_a85Z9XOLjcWy-8" edge="1">
          <mxGeometry width="50" height="50" relative="1" as="geometry">
            <mxPoint x="480" y="130" as="sourcePoint"/>
            <mxPoint x="560" y="270" as="targetPoint"/>
          </mxGeometry>
        </mxCell>
        <mxCell id="TApKO4t_a85Z9XOLjcWy-8" value="2.2.3&lt;br&gt;Insert Submitted Form Data Into Client Table" style="whiteSpace=wrap;html=1;aspect=fixed;" parent="TApKO4t_a85Z9XOLjcWy-1" vertex="1">
          <mxGeometry x="550" y="270" width="90" height="90" as="geometry"/>
        </mxCell>
        <mxCell id="TApKO4t_a85Z9XOLjcWy-9" value="" style="endArrow=classic;html=1;curved=1;" parent="TApKO4t_a85Z9XOLjcWy-1" edge="1">
          <mxGeometry width="50" height="50" relative="1" as="geometry">
            <mxPoint x="455" y="149.9999999999999" as="sourcePoint"/>
            <mxPoint x="430" y="150" as="targetPoint"/>
            <Array as="points">
              <mxPoint x="490" y="160"/>
              <mxPoint x="470" y="180"/>
              <mxPoint x="410" y="180"/>
              <mxPoint x="400" y="160"/>
            </Array>
          </mxGeometry>
        </mxCell>
      </root>
    </mxGraphModel>
  </diagram>
</mxfile>
